<svg width="37" height="37" viewBox="0 0 37 37" fill="none" xmlns="http://www.w3.org/2000/svg">
<g clip-path="url(#clip0_6511_1211)">
<path d="M31.8604 19.386V17.25C31.8604 13.6696 30.4381 10.2358 27.9064 7.70406C25.3746 5.17232 21.9409 3.75 18.3604 3.75C14.78 3.75 11.3462 5.17232 8.81446 7.70406C6.28271 10.2358 4.8604 13.6696 4.8604 17.25V19.386C3.28714 20.0787 1.9996 21.2909 1.21333 22.8196C0.427064 24.3483 0.189791 26.1006 0.541236 27.7834C0.892681 29.4661 1.81151 30.977 3.1439 32.0632C4.4763 33.1494 6.14138 33.7449 7.8604 33.75H10.8604V18.75H7.8604V17.25C7.8604 14.4652 8.96664 11.7945 10.9358 9.82538C12.905 7.85625 15.5757 6.75 18.3604 6.75C21.1452 6.75 23.8159 7.85625 25.7851 9.82538C27.7542 11.7945 28.8604 14.4652 28.8604 17.25V18.75H25.8604V30.75H19.8604V33.75H28.8604C30.5795 33.7449 32.2445 33.1494 33.5769 32.0632C34.9093 30.977 35.8282 29.4661 36.1796 27.7834C36.5311 26.1006 36.2938 24.3483 35.5075 22.8196C34.7211 21.2909 33.4337 20.0787 31.8604 19.386ZM7.8604 30.75C6.66692 30.75 5.52233 30.2759 4.67842 29.432C3.8345 28.5881 3.3604 27.4435 3.3604 26.25C3.3604 25.0565 3.8345 23.9119 4.67842 23.068C5.52233 22.2241 6.66692 21.75 7.8604 21.75V30.75ZM28.8604 30.75V21.75C30.0539 21.75 31.1985 22.2241 32.0424 23.068C32.8862 23.9119 33.3604 25.0565 33.3604 26.25C33.3604 27.4435 32.8862 28.5881 32.0424 29.432C31.1985 30.2759 30.0539 30.75 28.8604 30.75Z" fill="#253D4E"/>
</g>
<defs>
<clipPath id="clip0_6511_1211">
<rect width="36" height="36" fill="white" transform="translate(0.359375 0.75)"/>
</clipPath>
</defs>
</svg>
