<svg width="98" height="34" viewBox="0 0 98 34" fill="none" xmlns="http://www.w3.org/2000/svg">
<path d="M24.979 0.985413C25.7223 0.985413 26.3267 1.2332 26.7913 1.72878C27.2559 2.22435 27.4878 2.84382 27.4878 3.58719V30.6735C27.4878 31.4788 27.2091 32.1602 26.6515 32.7177C26.125 33.2443 25.4595 33.5076 24.6542 33.5076C24.2515 33.5076 23.833 33.4456 23.3993 33.3217C22.9967 33.1669 22.6869 32.9655 22.4701 32.7177L4.21125 9.53409L5.41922 8.79073V30.9058C5.41922 31.6492 5.17143 32.2686 4.67586 32.7642C4.21126 33.2598 3.59178 33.5076 2.81745 33.5076C2.07408 33.5076 1.4701 33.2598 1.0055 32.7642C0.540898 32.2686 0.308594 31.6492 0.308594 30.9058V3.81949C0.308594 3.01418 0.571872 2.34825 1.09842 1.8217C1.65594 1.26417 2.33736 0.985413 3.14267 0.985413C3.57629 0.985413 4.02541 1.07833 4.49002 1.26417C4.95462 1.41904 5.29533 1.66683 5.51214 2.00754L23.2135 24.5872L22.4232 25.1447V3.58719C22.4232 2.84382 22.656 2.22435 23.1206 1.72878C23.5852 1.2332 24.2046 0.985413 24.979 0.985413ZM45.4658 33.9722C42.8331 33.9722 40.5411 33.4301 38.5897 32.3461C36.6694 31.231 35.1826 29.7288 34.1295 27.8394C33.1074 25.95 32.5959 23.8129 32.5959 21.4279C32.5959 18.6403 33.1535 16.2708 34.2685 14.3195C35.4145 12.3372 36.9013 10.8195 38.7287 9.7664C40.5561 8.7133 42.4924 8.18675 44.5366 8.18675C46.1163 8.18675 47.603 8.51197 48.9968 9.16241C50.4216 9.81286 51.6756 10.7111 52.7597 11.8571C53.8438 12.9722 54.6959 14.273 55.3154 15.7598C55.9658 17.2465 56.2907 18.8261 56.2907 20.4987C56.2597 21.2421 55.9659 21.8461 55.4083 22.3107C54.8508 22.7753 54.2004 23.0076 53.457 23.0076H35.7092L34.3154 18.3615H51.3659L50.3437 19.2907V18.0363C50.2818 17.1381 49.957 16.3328 49.3685 15.6204C48.811 14.908 48.0986 14.3505 47.2313 13.9478C46.395 13.5142 45.4968 13.2974 44.5366 13.2974C43.6074 13.2974 42.7402 13.4213 41.9349 13.6691C41.1296 13.9168 40.4322 14.335 39.8437 14.9235C39.2552 15.512 38.7906 16.3018 38.4499 17.293C38.1092 18.2841 37.9393 19.5385 37.9393 21.0562C37.9393 22.7288 38.28 24.1536 38.9614 25.3306C39.6738 26.4766 40.572 27.3593 41.6561 27.9788C42.7711 28.5673 43.9481 28.8615 45.1871 28.8615C46.3331 28.8615 47.2464 28.7686 47.9278 28.5828C48.6092 28.3969 49.1517 28.1801 49.5543 27.9323C49.988 27.6536 50.3747 27.4213 50.7154 27.2354C51.2729 26.9567 51.7995 26.8173 52.2951 26.8173C52.9765 26.8173 53.534 27.0496 53.9676 27.5142C54.4322 27.9788 54.665 28.5208 54.665 29.1403C54.665 29.9766 54.2313 30.7354 53.3641 31.4169C52.5588 32.0983 51.4278 32.7023 49.9721 33.2288C48.5163 33.7244 47.0145 33.9722 45.4658 33.9722ZM59.4818 29.6514C59.172 29.2177 59.0322 28.6602 59.0632 27.9788C59.0942 27.2974 59.4968 26.7089 60.2712 26.2133C60.7668 25.9036 61.2933 25.7797 61.8508 25.8416C62.4083 25.8726 62.9508 26.1514 63.4773 26.6779C64.3756 27.5761 65.3198 28.2731 66.311 28.7686C67.3022 29.2642 68.5411 29.512 70.0278 29.512C70.4924 29.481 71.0039 29.4191 71.5614 29.3262C72.1189 29.2023 72.5986 28.9545 73.0013 28.5828C73.4349 28.1801 73.6517 27.5761 73.6517 26.7708C73.6517 26.0894 73.4198 25.5474 72.9552 25.1447C72.4906 24.7421 71.8712 24.4014 71.0968 24.1226C70.3535 23.8438 69.5172 23.5806 68.588 23.3328C67.6278 23.054 66.6366 22.7443 65.6145 22.4036C64.6234 22.0629 63.7092 21.6292 62.8729 21.1027C62.0367 20.5452 61.3552 19.8173 60.8287 18.9191C60.3021 18.0208 60.0393 16.8903 60.0393 15.5275C60.0393 13.9788 60.4729 12.6624 61.3402 11.5783C62.2074 10.4943 63.3225 9.65799 64.6853 9.06949C66.0791 8.481 67.5349 8.18675 69.0526 8.18675C70.0127 8.18675 71.019 8.31064 72.0721 8.55843C73.1252 8.77524 74.1322 9.14693 75.0924 9.67348C76.0526 10.1691 76.8579 10.835 77.5083 11.6713C77.849 12.1359 78.0499 12.6934 78.1119 13.3438C78.1738 13.9943 77.88 14.5828 77.2296 15.1093C76.765 15.481 76.2225 15.6514 75.603 15.6204C74.9836 15.5584 74.4729 15.3416 74.0703 14.9699C73.5437 14.2885 72.8313 13.7465 71.9331 13.3438C71.0658 12.9412 70.0588 12.7399 68.9128 12.7399C68.4482 12.7399 67.9375 12.8018 67.38 12.9257C66.8534 13.0186 66.3889 13.2509 65.9862 13.6226C65.5835 13.9633 65.3818 14.5208 65.3818 15.2952C65.3818 16.0076 65.6145 16.5806 66.0791 17.0142C66.5437 17.4168 67.1632 17.7576 67.9375 18.0363C68.7428 18.2841 69.5942 18.5319 70.4924 18.7797C71.4216 19.0275 72.3667 19.3217 73.3269 19.6624C74.2871 20.0031 75.1694 20.4522 75.9747 21.0098C76.78 21.5673 77.4305 22.2952 77.9261 23.1934C78.4216 24.0607 78.6694 25.1757 78.6694 26.5385C78.6694 28.1182 78.2048 29.4655 77.2756 30.5806C76.3464 31.6956 75.1853 32.5474 73.7915 33.1359C72.3977 33.6934 70.9729 33.9722 69.5172 33.9722C67.6897 33.9722 65.8623 33.6624 64.0349 33.043C62.2074 32.3925 60.6897 31.262 59.4818 29.6514ZM83.5959 9.11595H94.6065C95.3499 9.11595 95.9694 9.36374 96.4649 9.85932C96.9605 10.3549 97.2083 10.9744 97.2083 11.7177C97.2083 12.4301 96.9605 13.0341 96.4649 13.5297C95.9694 13.9943 95.3499 14.2266 94.6065 14.2266H83.5959C82.8525 14.2266 82.233 13.9788 81.7375 13.4832C81.2419 12.9876 80.9941 12.3682 80.9941 11.6248C80.9941 10.9124 81.2419 10.3239 81.7375 9.85932C82.233 9.36374 82.8525 9.11595 83.5959 9.11595ZM88.5667 3.30842C89.372 3.30842 90.0225 3.58718 90.518 4.14471C91.0446 4.67126 91.3083 5.33719 91.3083 6.1425V26.8173C91.3083 27.2509 91.3853 27.6071 91.5402 27.8859C91.726 28.1646 91.9587 28.366 92.2375 28.4899C92.5472 28.6138 92.872 28.6757 93.2127 28.6757C93.5844 28.6757 93.9251 28.6138 94.2348 28.4899C94.5446 28.335 94.9012 28.2576 95.3039 28.2576C95.7375 28.2576 96.1242 28.4589 96.4649 28.8615C96.8366 29.2642 97.0225 29.8217 97.0225 30.5341C97.0225 31.4014 96.5428 32.1138 95.5826 32.6713C94.6534 33.2288 93.6463 33.5076 92.5623 33.5076C91.9118 33.5076 91.1844 33.4611 90.3791 33.3682C89.6047 33.2443 88.8614 32.981 88.149 32.5784C87.4676 32.1447 86.8941 31.4943 86.4295 30.627C85.9649 29.7598 85.733 28.5673 85.733 27.0496V6.1425C85.733 5.33719 85.9959 4.67126 86.5225 4.14471C87.08 3.58718 87.7614 3.30842 88.5667 3.30842Z" fill="#3BB77E"/>
</svg>
