<svg width="32" height="28" viewBox="0 0 32 28" fill="none" xmlns="http://www.w3.org/2000/svg">
<path d="M21.5 10C22.8409 10 23.9886 9.10502 24 7.99087C23.9886 6.89498 22.8409 6 21.5 6C20.1137 6 18.9887 6.89498 19.0001 7.99087C18.9887 9.10502 20.1137 10 21.5 10Z" fill="#FE7747"/>
<path d="M9.50004 16C10.8409 16 11.9886 15.105 12 13.9909C11.9886 12.895 10.8409 12 9.50004 12C8.1137 12 6.98872 12.895 7.00009 13.9909C6.98872 15.105 8.1137 16 9.50004 16Z" fill="#FE7747"/>
<path d="M15.0214 22.1582C15.5349 23.648 15.0214 26.8715 8.85876 27.8467C5.00712 28.253 0 28.253 0 22.5645V5.7401C0 4.16991 1.30956 1.02952 6.54778 1.02952C13.0956 1.02952 14.6362 4.6864 17.3323 10.3749C19.4893 14.9257 21.0556 18.5013 21.5691 19.7203C22.468 21.8538 23.572 22.727 25.4208 21.7519V4.28009C25.4208 2.92569 24.2653 0.460675 19.6433 1.43584C21.184 0.352322 25.4978 -1.16461 30.4279 1.43584C32.3537 2.84424 31.9686 5.28217 31.9686 8.93905V22.754C31.9686 24.3793 30.582 27.5217 26.5763 27.8467C21.5691 28.253 19.6433 27.8467 17.3323 24.1898C15.4836 21.2643 12.1968 13.49 10.7846 9.96854C10.1426 8.4787 8.31953 5.90534 6.16261 7.53062V21.7518C9.55205 21.7518 11.4265 17.9595 11.9401 16.0634L15.0214 22.1582Z" fill="#53BD95"/>
</svg>
